<?xml version="1.0" standalone="no"?>
<!DOCTYPE svg PUBLIC "-//W3C//DTD SVG 20010904//EN"
 "http://www.w3.org/TR/2001/REC-SVG-20010904/DTD/svg10.dtd">
<svg version="1.0" xmlns="http://www.w3.org/2000/svg"
 width="201.000000pt" height="201.000000pt" viewBox="0 0 201.000000 201.000000"
 preserveAspectRatio="xMidYMid meet">
<metadata>
Created by potrace 1.14, written by Peter Selinger 2001-2017
</metadata>
<g transform="translate(0.000000,201.000000) scale(0.100000,-0.100000)"
fill="#000000" stroke="none">
<path d="M804 1707 c-172 -44 -295 -211 -308 -417 -6 -93 29 -180 99 -246 129
-122 304 -197 649 -278 60 -14 113 -29 117 -33 12 -12 -7 -75 -29 -101 -26
-29 -92 -61 -132 -63 -109 -5 -229 43 -354 142 -27 22 -53 39 -59 39 -31 0
-158 -74 -201 -118 -71 -71 -103 -135 -123 -242 -4 -23 -3 -23 14 -8 93 81
226 75 468 -22 121 -49 172 -61 260 -61 164 0 290 77 365 222 70 137 52 276
-50 367 -60 54 -237 119 -425 156 -127 25 -238 70 -284 115 -89 87 -72 214 37
271 31 15 134 20 180 8 62 -16 178 -78 239 -127 32 -26 65 -45 73 -43 144 44
286 188 306 309 2 16 6 38 9 50 5 22 3 21 -41 -10 -44 -31 -49 -32 -147 -31
-88 0 -113 4 -187 31 -246 90 -264 95 -345 99 -45 2 -102 -2 -131 -9z"/>
</g>
</svg>
